<svg width="27" height="26" viewBox="0 0 27 26" fill="none" xmlns="http://www.w3.org/2000/svg">
<path d="M5.05293 23.1561C7.34788 24.9995 10.2042 26.0023 13.148 25.9998C13.633 26.0018 14.118 25.974 14.5994 25.9173C16.9014 25.7125 19.1064 24.8973 20.9882 23.5551C22.8694 22.2129 24.3583 20.3934 25.3009 18.2835C26.2436 16.1736 26.6062 13.8504 26.3508 11.5539C26.0954 9.25691 25.2316 7.07018 23.8485 5.21874C22.4654 3.3673 20.6129 1.91892 18.4833 1.02329C16.3532 0.127155 14.0229 -0.183863 11.732 0.122098C8.36944 0.476607 5.28252 2.14295 3.14131 4.75955L2.95267 3.44973C2.89148 3.02796 2.6103 2.67143 2.21483 2.51314C1.81936 2.35536 1.36927 2.42059 1.03448 2.68407C0.700198 2.94755 0.531288 3.36983 0.592985 3.7916L1.26559 8.29908C1.28987 8.33296 1.31768 8.36482 1.34803 8.39365C1.34145 8.45636 1.34145 8.51957 1.34803 8.58228C1.38393 8.6637 1.43147 8.73906 1.48963 8.80632L1.63123 8.94792C1.63123 8.94792 1.70203 9.04249 1.74906 9.06575C1.788 9.09609 1.832 9.11986 1.87903 9.13655C2.00293 9.18611 2.13492 9.21393 2.26844 9.21898C2.36654 9.23062 2.46516 9.23062 2.56327 9.21898L6.83508 8.18024C7.13902 8.10236 7.39947 7.90715 7.55877 7.63659C7.71807 7.36653 7.76359 7.04439 7.68469 6.74045C7.5972 6.44764 7.39896 6.20085 7.13295 6.05116C6.86644 5.90146 6.55289 5.86101 6.25705 5.93787L5.0064 6.20945C6.75215 4.10464 9.2499 2.76297 11.9686 2.46864C13.8504 2.19959 15.7701 2.44032 17.5275 3.16602C19.2844 3.89173 20.8147 5.07613 21.9576 6.5948C23.1005 8.11399 23.8156 9.91182 24.027 11.8012C24.2384 13.6906 23.9385 15.6022 23.1592 17.3363C22.3799 19.0704 21.149 20.5633 19.5959 21.6592C18.0428 22.7556 16.2238 23.4145 14.3283 23.5678C12.4708 23.7711 10.5921 23.4808 8.88274 22.7263C7.17341 21.9712 5.69317 20.7792 4.59171 19.2692C3.49025 17.7591 2.80703 15.9855 2.6103 14.1275C2.56378 13.8337 2.40751 13.5677 2.17336 13.3841C1.93921 13.2 1.64438 13.1115 1.34752 13.1363C1.036 13.1717 0.751276 13.33 0.556068 13.5758C0.361366 13.8215 0.272359 14.1346 0.308771 14.4461C0.484761 16.1393 0.994527 17.7803 1.80874 19.2752C2.62294 20.7701 3.72541 22.0885 5.05293 23.1546V23.1561Z" fill="#00D198"/>
<path d="M13.1486 5.10193C12.8356 5.10193 12.5357 5.22634 12.3142 5.44734C12.0927 5.66884 11.9688 5.96873 11.9688 6.28177V13.0195C11.9703 13.3785 12.1351 13.7174 12.4173 13.9399L16.6886 17.3146C16.9334 17.5077 17.2439 17.5957 17.5534 17.5603C17.8629 17.5249 18.1456 17.3687 18.3408 17.1254C18.535 16.8827 18.6255 16.5727 18.5922 16.2632C18.5588 15.9537 18.405 15.67 18.1638 15.4737L14.3284 12.4531V6.28177C14.3284 5.96873 14.204 5.66884 13.983 5.44734C13.7615 5.22583 13.4616 5.10193 13.1486 5.10193Z" fill="#00D198"/>
</svg>
