<svg width="27" height="16" viewBox="0 0 27 16" fill="none" xmlns="http://www.w3.org/2000/svg">
<path d="M25.2682 7.72587C22.1814 11.6985 18.0437 14.1294 13.4933 14.1294C8.94301 14.1294 4.77025 11.6781 1.67961 7.67285C1.64846 7.63206 1.64846 7.7014 1.67961 7.66062C4.76247 3.68798 8.90409 1.25708 13.4544 1.25708C18.0048 1.25708 22.1775 3.70837 25.2682 7.70956C25.2993 7.75035 25.2993 7.68509 25.2682 7.72587Z" stroke="#008179" stroke-width="2.3" stroke-miterlimit="10"/>
<path d="M17.5575 7.69336C17.5575 10.0931 15.7066 11.9981 13.4721 11.9981C11.2376 11.9981 9.38672 10.0931 9.38672 7.69336C9.38672 5.29368 11.2376 3.38867 13.4721 3.38867C15.7066 3.38867 17.5575 5.29368 17.5575 7.69336Z" fill="#008179" stroke="#008179"/>
</svg>
