<svg width="68" height="67" viewBox="0 0 68 67" fill="none" xmlns="http://www.w3.org/2000/svg">
<path d="M12.9087 59.562C18.7673 64.2677 26.0589 66.8278 33.5738 66.8213C34.8119 66.8265 36.05 66.7555 37.279 66.6109C43.1557 66.088 48.7845 64.0069 53.5883 60.5806C58.3908 57.1543 62.1916 52.5092 64.598 47.1231C67.0044 41.7371 67.9301 35.8062 67.2781 29.9437C66.6262 24.08 64.4211 18.4976 60.8902 13.7713C57.3593 9.04489 52.6304 5.34745 47.1939 3.06107C41.7562 0.773408 35.8073 -0.0205609 29.959 0.760498C21.3751 1.66549 13.4948 5.91936 8.02867 12.599L7.54712 9.25532C7.39091 8.17862 6.67311 7.26846 5.66354 6.86438C4.65398 6.46158 3.50498 6.62812 2.65033 7.30074C1.79698 7.97335 1.36578 9.05134 1.52329 10.128L3.24032 21.6348C3.30229 21.7213 3.3733 21.8026 3.45076 21.8762C3.43398 22.0363 3.43398 22.1977 3.45076 22.3578C3.54242 22.5656 3.66378 22.758 3.81224 22.9297L4.17372 23.2911C4.17372 23.2911 4.35446 23.5326 4.47453 23.592C4.57393 23.6694 4.68625 23.7301 4.80632 23.7727C5.12261 23.8992 5.45957 23.9702 5.80039 23.9831C6.05085 24.0128 6.30259 24.0128 6.55305 23.9831L17.4582 21.3314C18.2341 21.1326 18.8989 20.6343 19.3056 19.9436C19.7123 19.2542 19.8285 18.4318 19.6271 17.6559C19.4037 16.9084 18.8977 16.2784 18.2186 15.8963C17.5382 15.5141 16.7378 15.4108 15.9826 15.6071L12.7899 16.3003C17.2465 10.9272 23.6227 7.50214 30.5632 6.75077C35.367 6.06395 40.2677 6.67847 44.7539 8.53107C49.2389 10.3837 53.1455 13.4072 56.0632 17.2841C58.9808 21.1623 60.8063 25.7518 61.346 30.575C61.8856 35.3982 61.12 40.2782 59.1306 44.7051C57.1412 49.1319 53.9988 52.943 50.0342 55.7406C46.0695 58.5395 41.4257 60.2217 36.587 60.6129C31.8452 61.1318 27.0491 60.3908 22.6855 58.4646C18.3219 56.5372 14.5431 53.4943 11.7313 49.6393C8.91946 45.7844 7.17531 41.2568 6.67311 36.5136C6.55434 35.7636 6.15542 35.0845 5.55768 34.6159C4.95995 34.1459 4.20729 33.92 3.44947 33.9833C2.65421 34.0736 1.92737 34.4777 1.42904 35.1052C0.932005 35.7326 0.704788 36.5317 0.79774 37.327C1.24701 41.6493 2.54835 45.8386 4.62687 49.6548C6.70539 53.471 9.51978 56.8367 12.9087 59.5581V59.562Z" fill="#00D198"/>
<path d="M33.5744 13.4731C32.7753 13.4731 32.0097 13.7907 31.4443 14.3549C30.8788 14.9204 30.5625 15.6859 30.5625 16.4851V33.6851C30.5664 34.6018 30.9872 35.4667 31.7076 36.0348L42.6115 44.6497C43.2363 45.1428 44.029 45.3675 44.8191 45.2771C45.6092 45.1867 46.3309 44.7878 46.8292 44.1668C47.3249 43.5471 47.556 42.7558 47.4708 41.9657C47.3856 41.1756 46.9931 40.4513 46.3773 39.9504L36.5863 32.2392V16.4851C36.5863 15.6859 36.2688 14.9204 35.7046 14.3549C35.1391 13.7894 34.3736 13.4731 33.5744 13.4731Z" fill="#00D198"/>
</svg>
