<svg width="48" height="61" viewBox="0 0 48 61" fill="none" xmlns="http://www.w3.org/2000/svg">
<path fill-rule="evenodd" clip-rule="evenodd" d="M23.8753 0.675781C15.4839 0.675781 8.67584 7.46878 8.67584 15.8477V23.9725H6.45156C2.9881 23.9725 0.136719 26.8088 0.136719 30.2698V53.9583C0.136719 57.4205 2.9881 60.2556 6.45156 60.2556H41.6094C45.0729 60.2556 47.9105 57.4193 47.9105 53.9583V30.2711C47.9105 26.8088 45.0729 23.9737 41.6094 23.9737H39.0872V15.8477C39.0872 7.46878 32.2679 0.675781 23.8765 0.675781H23.8753ZM23.8753 4.18055C30.3904 4.18055 35.5812 9.35384 35.5812 15.8477V23.9725H12.1806V15.8489C12.1806 9.35509 17.3614 4.1818 23.8753 4.1818V4.18055ZM6.45031 27.4785H41.6082C43.1941 27.4785 44.4045 28.6939 44.4045 30.2711V53.9595C44.4045 55.5367 43.1941 56.7521 41.6082 56.7521H6.45031C4.8644 56.7521 3.64024 55.5367 3.64024 53.9595V30.2711C3.64024 28.6939 4.8644 27.4785 6.45031 27.4785ZM24.0292 33.687C20.6772 33.687 17.9097 36.442 17.9097 39.7928C17.9097 42.534 19.7609 44.8672 22.2706 45.6245V48.7975C22.2731 49.2619 22.4583 49.7075 22.7888 50.0342C23.118 50.3621 23.5649 50.5449 24.0292 50.5424C24.9918 50.5386 25.7704 49.7588 25.7754 48.7963V45.627C28.2863 44.8722 30.1363 42.5365 30.1363 39.7915C30.1363 36.4407 27.3825 33.6857 24.0305 33.6857L24.0292 33.687ZM24.0292 37.1917C25.4912 37.1917 26.6303 38.3395 26.6303 39.7928C26.6303 41.246 25.4912 42.38 24.0292 42.38C22.5672 42.38 21.4144 41.246 21.4144 39.7928C21.4144 38.3395 22.5672 37.1917 24.0292 37.1917Z" fill="#00D198"/>
</svg>
