<svg width="271" height="69" viewBox="0 0 271 69" fill="none" xmlns="http://www.w3.org/2000/svg">
<path d="M235.985 68.2134H192.886C174.091 68.2134 158.855 52.9775 158.855 34.1828C158.855 15.388 174.091 0.146484 192.886 0.146484H235.985C254.78 0.146484 270.016 15.3824 270.016 34.1771C270.016 52.9719 254.78 68.2078 235.985 68.2078" fill="#00D198"/>
<path d="M241.68 14.8818V32.1811L228.215 14.8818H216.791V54.4784H229.424V36.437L243.474 54.4784H254.319V14.8818H241.68Z" fill="#008278"/>
<path d="M171.383 34.1309C171.383 22.7462 180.614 13.5146 191.999 13.5146C203.384 13.5146 212.621 22.7462 212.621 34.1309C212.621 45.5157 203.389 54.7472 191.999 54.7472C180.609 54.7472 171.383 45.5157 171.383 34.1309Z" fill="#008278"/>
<path d="M183.852 34.1316C183.852 29.6282 187.5 25.9795 192.004 25.9795C196.507 25.9795 200.156 29.6282 200.156 34.1316C200.156 38.6349 196.507 42.2836 192.004 42.2836C187.5 42.2836 183.852 38.6349 183.852 34.1316Z" fill="white"/>
<path d="M23.8965 14.5781L12.894 27.5427V14.5781H0.154297V54.1747H12.894V43.8131L15.3059 41.1314L24.1326 54.1747H39.4697L24.1495 31.8661L39.3741 14.5781H23.8965Z" fill="white"/>
<path d="M55.4415 42.9698V39.5234H73.2748V28.9595H55.4415V25.7774H75.1301V14.5781H42.8086V54.1747H75.4V42.9698H55.4415Z" fill="white"/>
<path d="M105.81 14.5781L98.8271 26.8512L91.8951 14.5781H77.2832L92.3505 39.3885V54.1747H105.141V39.2311L120.219 14.5781H105.81Z" fill="white"/>
<path d="M156.044 14.5781H121.383V25.7268H137.879L120.748 44.9994V54.1747H156.044V43.026H138.913L156.044 23.7478V14.5781Z" fill="white"/>
</svg>
