<svg width="238" height="61" viewBox="0 0 238 61" fill="none" xmlns="http://www.w3.org/2000/svg">
<path d="M207.135 60.7336H169.309C152.813 60.7336 139.441 47.3617 139.441 30.8663C139.441 14.371 152.813 0.994141 169.309 0.994141H207.135C223.63 0.994141 237.002 14.3661 237.002 30.8614C237.002 47.3568 223.63 60.7287 207.135 60.7287" fill="white"/>
<path d="M212.133 13.9268V29.1096L200.316 13.9268H190.289V48.679H201.376V32.8448L213.707 48.679H223.225V13.9268H212.133Z" fill="#008278"/>
<path d="M150.438 30.8216C150.438 20.8296 158.54 12.7275 168.532 12.7275C178.523 12.7275 186.631 20.8296 186.631 30.8216C186.631 40.8135 178.528 48.9156 168.532 48.9156C158.535 48.9156 150.438 40.8135 150.438 30.8216Z" fill="#008278"/>
<path d="M161.383 30.8217C161.383 26.8693 164.585 23.667 168.538 23.667C172.49 23.667 175.692 26.8693 175.692 30.8217C175.692 34.7741 172.49 37.9764 168.538 37.9764C164.585 37.9764 161.383 34.7741 161.383 30.8217Z" fill="#00D199"/>
<path d="M20.9938 13.6602L11.3374 25.0386V13.6602H0.15625V48.4124H11.3374V39.3185L13.4542 36.9648L21.201 48.4124H34.6618L21.2158 28.8331L34.5779 13.6602H20.9938Z" fill="#008278"/>
<path d="M48.6811 38.5783V35.5536H64.3327V26.2821H48.6811V23.4893H65.961V13.6602H37.5938V48.4124H66.1978V38.5783H48.6811Z" fill="#008278"/>
<path d="M92.8843 13.6602L86.7559 24.4317L80.6719 13.6602H67.8477L81.0716 35.4352V48.4124H92.2971V35.297L105.531 13.6602H92.8843Z" fill="#008278"/>
<path d="M136.974 13.6602H106.554V23.4449H121.031L105.996 40.3596V48.4124H136.974V38.6277H121.939L136.974 21.708V13.6602Z" fill="#008278"/>
</svg>
