<svg width="95" height="26" viewBox="0 0 95 26" fill="none" xmlns="http://www.w3.org/2000/svg">
<path d="M30.5083 5.46631C30.316 5.46631 30.1523 5.60596 30.1223 5.79678L27.893 19.9356C27.8623 20.133 27.9969 20.318 28.1943 20.3494C28.2125 20.3523 28.2316 20.3538 28.2506 20.3538H30.8944C31.0867 20.3538 31.2504 20.2134 31.2804 20.0233L31.9355 15.8712C31.9655 15.6811 32.1293 15.5407 32.3216 15.5407H34.7256C37.5346 15.5407 39.9181 13.4913 40.3539 10.7144C40.7933 7.91417 38.605 5.47216 35.5042 5.46631H30.5083ZM33.0783 8.62265H35.0019C36.5856 8.62265 37.101 9.55704 36.938 10.5901C36.7749 11.6254 35.9743 12.388 34.4426 12.388H32.4853L33.079 8.62265H33.0783ZM45.7314 9.5841C45.0639 9.58629 44.2955 9.72301 43.4334 10.0827C41.455 10.9075 40.5052 12.6118 40.1016 13.854C40.1016 13.854 38.8178 17.6442 41.7189 19.7272C41.7189 19.7272 44.4095 21.732 47.4386 19.6037L47.3867 19.9363C47.356 20.1337 47.4906 20.3187 47.688 20.3502C47.7062 20.3531 47.7245 20.3545 47.7435 20.3545H50.2535C50.4458 20.3545 50.6096 20.2142 50.6396 20.0241L52.1662 10.3416C52.1976 10.1441 52.0631 9.95844 51.865 9.92773C51.8467 9.92481 51.8277 9.92335 51.8087 9.92335H49.2987C49.1064 9.92335 48.9419 10.0637 48.9126 10.2538L48.8307 10.7751C48.8307 10.7751 47.7348 9.57752 45.7314 9.58556V9.5841ZM45.8133 12.6425C46.1014 12.6425 46.3653 12.6819 46.6015 12.758C47.6843 13.1053 48.2985 14.1457 48.1208 15.2738C47.9015 16.6623 46.7631 17.6851 45.3022 17.6851C45.0142 17.6851 44.751 17.6457 44.5141 17.5696C43.4313 17.2223 42.8134 16.1819 42.9911 15.0538C43.2104 13.6653 44.3525 12.6425 45.8133 12.6425Z" fill="#003087"/>
<path d="M66.6529 5.46631C66.4606 5.46631 66.2968 5.60596 66.2668 5.79678L64.0376 19.9356C64.0069 20.133 64.1414 20.318 64.3388 20.3494C64.3571 20.3523 64.3761 20.3538 64.3951 20.3538H67.0389C67.2312 20.3538 67.395 20.2134 67.4249 20.0233L68.08 15.8712C68.11 15.6811 68.2738 15.5407 68.4661 15.5407H70.8701C73.6791 15.5407 76.0627 13.4913 76.4977 10.7144C76.9371 7.91417 74.7495 5.47216 71.6487 5.46631H66.6529ZM69.2228 8.62265H71.1465C72.7301 8.62265 73.2456 9.55704 73.0825 10.5901C72.9195 11.6254 72.1189 12.388 70.5871 12.388H68.6299L69.2236 8.62265H69.2228ZM81.8752 9.5841C81.2077 9.58629 80.4393 9.72301 79.5772 10.0827C77.5988 10.9075 76.649 12.6118 76.2454 13.854C76.2454 13.854 74.9615 17.6442 77.8635 19.7272C77.8635 19.7272 80.5533 21.732 83.5824 19.6037L83.5305 19.9363C83.4998 20.1337 83.6343 20.3187 83.8318 20.3502C83.85 20.3531 83.869 20.3545 83.8881 20.3545H86.3981C86.5904 20.3545 86.7541 20.2142 86.7841 20.0241L88.3115 10.3416C88.3429 10.1441 88.2084 9.95844 88.0102 9.92773C87.9912 9.92481 87.9722 9.92335 87.9532 9.92335H85.4432C85.2509 9.92335 85.0864 10.0637 85.0572 10.2538L84.9753 10.7751C84.9753 10.7751 83.8793 9.57752 81.876 9.58556L81.8752 9.5841ZM81.9571 12.6425C82.2452 12.6425 82.5091 12.6819 82.7453 12.758C83.8281 13.1053 84.4423 14.1457 84.2646 15.2738C84.0453 16.6623 82.9069 17.6851 81.446 17.6851C81.158 17.6851 80.8948 17.6457 80.6579 17.5696C79.575 17.2223 78.9572 16.1819 79.1349 15.0538C79.3542 13.6653 80.4963 12.6425 81.9571 12.6425Z" fill="#0070E0"/>
<path d="M53.3563 9.92261C53.1574 9.92261 53.0156 10.1171 53.077 10.3065L55.829 18.8455L53.3409 22.8697C53.2203 23.0649 53.3607 23.3171 53.5902 23.3171H56.5309C56.702 23.3171 56.8606 23.2272 56.9491 23.081L64.6341 10.3679C64.7518 10.1727 64.6115 9.92261 64.3826 9.92261H61.442C61.2694 9.92261 61.1093 10.014 61.0216 10.1624L57.9968 15.2694L56.4614 10.1997C56.4117 10.0345 56.2589 9.92188 56.0871 9.92188H53.357L53.3563 9.92261Z" fill="#003087"/>
<path d="M91.1636 5.46606C90.9713 5.46606 90.8075 5.60644 90.7775 5.79654L88.5475 19.9346C88.5161 20.132 88.6506 20.3177 88.8488 20.3484C88.8678 20.3514 88.8868 20.3528 88.9058 20.3528H91.5496C91.7419 20.3528 91.9057 20.2125 91.9356 20.0224L94.1649 5.88354C94.1956 5.68614 94.0611 5.50116 93.8637 5.46972C93.8454 5.46679 93.8271 5.46533 93.8081 5.46533H91.1643L91.1636 5.46606Z" fill="#0070E0"/>
<path d="M8.4657 5.46631C8.11402 5.46631 7.81426 5.72294 7.75942 6.07023L6.58594 13.514C6.64077 13.1667 6.94054 12.9101 7.29222 12.9101H10.7315C14.1927 12.9101 17.1297 10.3854 17.6664 6.96369C17.7066 6.70852 17.7293 6.45042 17.7344 6.1916C16.8548 5.73025 15.8217 5.46631 14.6892 5.46631H8.4657Z" fill="#001C64"/>
<path d="M17.7328 6.19141C17.7276 6.45023 17.705 6.70759 17.6648 6.96349C17.1281 10.3852 14.1911 12.9099 10.7299 12.9099H7.29061C6.93893 12.9099 6.63916 13.1658 6.58432 13.5138L5.50516 20.3536L4.82959 24.6447C4.77914 24.9613 4.99482 25.2588 5.31141 25.3093C5.34138 25.3144 5.37209 25.3166 5.4028 25.3166H9.13528C9.48696 25.3166 9.78672 25.06 9.84156 24.7127L10.8249 18.4768C10.8798 18.1288 11.1795 17.8729 11.532 17.8729H13.7298C17.191 17.8729 20.128 15.3482 20.6646 11.9265C21.0456 9.49836 19.8224 7.28812 17.7328 6.19214V6.19141Z" fill="#0070E0"/>
<path d="M4.22448 0.504639C3.8728 0.504639 3.57303 0.760538 3.51819 1.10783L0.589241 19.6825C0.533674 20.0349 0.80639 20.3537 1.16319 20.3537H5.5069L6.58533 13.5138L7.75881 6.07009C7.81365 5.72279 8.11342 5.4669 8.4651 5.46616H14.6878C15.8204 5.46616 16.8535 5.73011 17.733 6.19146C17.793 3.07679 15.223 0.504639 11.6887 0.504639H4.22448Z" fill="#003087"/>
</svg>
