<svg width="23" height="25" viewBox="0 0 23 25" fill="none" xmlns="http://www.w3.org/2000/svg">
<path d="M22.2259 21.6961L17.907 17.3772C19.5175 15.5716 20.5179 13.1803 20.5179 10.5695C20.5179 4.93299 15.9306 0.345703 10.2941 0.345703C4.6576 0.345703 0.0703125 4.93299 0.0703125 10.5695C0.0703125 16.206 4.6576 20.7933 10.2941 20.7933C12.2949 20.7933 14.1494 20.2077 15.711 19.2317L20.2007 23.7213C20.4691 23.9897 20.8351 24.1361 21.2011 24.1361C21.5671 24.1361 21.9331 23.9897 22.2015 23.7213C22.7871 23.1601 22.7871 22.2573 22.2259 21.6961ZM2.92517 10.5695C2.92517 6.51902 6.21923 3.20056 10.2941 3.20056C14.369 3.20056 17.6386 6.51902 17.6386 10.5695C17.6386 14.62 14.3446 17.9384 10.2941 17.9384C6.24363 17.9384 2.92517 14.6444 2.92517 10.5695Z" fill="white"/>
</svg>
