<svg width="23" height="25" viewBox="0 0 23 25" fill="none" xmlns="http://www.w3.org/2000/svg">
<path d="M22.3158 22.2039L17.9969 17.885C19.6073 16.0794 20.6077 13.6882 20.6077 11.0773C20.6077 5.4408 16.0204 0.853516 10.3839 0.853516C4.74744 0.853516 0.160156 5.4408 0.160156 11.0773C0.160156 16.7138 4.74744 21.3011 10.3839 21.3011C12.3848 21.3011 14.2392 20.7155 15.8008 19.7395L20.2905 24.2291C20.5589 24.4976 20.9249 24.644 21.2909 24.644C21.657 24.644 22.023 24.4976 22.2914 24.2291C22.877 23.6679 22.877 22.7651 22.3158 22.2039ZM3.01501 11.0773C3.01501 7.02683 6.30907 3.70837 10.3839 3.70837C14.4588 3.70837 17.7285 7.02683 17.7285 11.0773C17.7285 15.1278 14.4344 18.4462 10.3839 18.4462C6.33347 18.4462 3.01501 15.1522 3.01501 11.0773Z" fill="#008179"/>
</svg>
