<svg width="70" height="70" viewBox="0 0 70 70" fill="none" xmlns="http://www.w3.org/2000/svg">
<path d="M35.127 20.6165C31.31 20.6165 27.7208 22.1028 25.0225 24.8011C22.3243 27.4994 20.8379 31.0885 20.8379 34.9056C20.8379 38.7227 22.3243 42.3118 25.0225 45.0101C27.7208 47.7083 31.31 49.1947 35.127 49.1947C38.9441 49.1947 42.5332 47.7083 45.2315 45.0101C47.9298 42.3118 49.4162 38.7227 49.4162 34.9056C49.4162 31.0885 47.9298 27.4994 45.2315 24.8011C42.5332 22.1028 38.9441 20.6165 35.127 20.6165ZM46.0277 34.9056C46.0277 40.9169 41.1383 45.8062 35.127 45.8062C29.1157 45.8062 24.2264 40.9169 24.2264 34.9056C24.2264 28.8943 29.1157 24.0049 35.127 24.0049C41.1383 24.0049 46.0277 28.8943 46.0277 34.9056Z" fill="#00D198" stroke="#00D198"/>
<path d="M67.0712 27.8188H60.3359C59.7757 25.8236 58.9796 23.9022 57.9619 22.0932L62.726 17.3291C63.1739 16.8812 63.4195 16.2857 63.4195 15.6517C63.4195 15.0176 63.1723 14.4221 62.726 13.9743L56.0582 7.30646C55.1336 6.38189 53.628 6.38189 52.7034 7.30646L47.9393 12.0706C46.1303 11.0529 44.2089 10.2567 42.2137 9.69654V2.96129C42.2137 1.65309 41.1495 0.588867 39.8413 0.588867H30.4109C29.1027 0.588867 28.0385 1.65309 28.0385 2.96129V9.69654C26.0417 10.2567 24.1203 11.0529 22.3113 12.0706L17.5472 7.30646C16.6226 6.38189 15.117 6.38189 14.1924 7.30646L7.52458 13.9743C7.07674 14.4221 6.83115 15.0176 6.83115 15.6517C6.83115 16.2857 7.07835 16.8812 7.52458 17.3291L12.2887 22.0932C11.271 23.9022 10.4749 25.8236 9.91467 27.8188H3.18102C1.87281 27.8188 0.808594 28.883 0.808594 30.1912V39.6215C0.808594 40.9297 1.87281 41.994 3.18102 41.994H9.91627C10.4749 43.9876 11.2726 45.9106 12.2903 47.7196L7.52619 52.4837C7.07835 52.9315 6.83276 53.527 6.83276 54.1611C6.83276 54.7951 7.07995 55.3906 7.52619 55.8385L14.194 62.5063C14.6419 62.9541 15.2374 63.1997 15.8714 63.1997C16.5055 63.1997 17.101 62.9525 17.5488 62.5063L22.3129 57.7422C24.1219 58.7599 26.0433 59.556 28.0385 60.1162V66.8515C28.0385 68.1597 29.1027 69.2239 30.4109 69.2239H39.8413C41.1495 69.2239 42.2137 68.1597 42.2137 66.8515V60.1162C44.2089 59.556 46.1303 58.7599 47.9393 57.7422L52.7034 62.5063C53.1512 62.9541 53.7468 63.1997 54.3808 63.1997C55.0148 63.1997 55.6104 62.9525 56.0582 62.5063L62.726 55.8385C63.1739 55.3906 63.4195 54.7951 63.4195 54.1611C63.4195 53.527 63.1723 52.9315 62.726 52.4837L57.9619 47.7196C58.9796 45.9106 59.7757 43.9892 60.3359 41.994H67.0712C68.3794 41.994 69.4436 40.9297 69.4436 39.6215V30.1912C69.4436 28.883 68.3794 27.8188 67.0712 27.8188ZM57.2492 40.4081C56.7035 42.6103 55.8319 44.7147 54.6553 46.6618C54.0919 47.596 54.2379 48.7886 55.01 49.5607L59.6088 54.1595L54.3792 59.3891L49.7804 54.7903C49.0083 54.0182 47.8157 53.8705 46.8799 54.4356C44.9328 55.6105 42.8285 56.4821 40.6262 57.0279C39.5636 57.2911 38.822 58.2382 38.822 59.3297V65.8322H31.4254V59.3297C31.4254 58.2382 30.6838 57.2911 29.6228 57.0279C27.4205 56.4821 25.3162 55.6105 23.3691 54.434C22.4349 53.8705 21.2423 54.0166 20.4686 54.7887L15.8698 59.3875L10.6386 54.1579L15.2374 49.5591C16.0095 48.7854 16.1555 47.5928 15.5921 46.6602C14.4171 44.7115 13.5439 42.6071 12.9982 40.4065C12.7349 39.3438 11.7895 38.6023 10.6964 38.6023H4.19709V31.2057H10.6996C11.7911 31.2057 12.7381 30.4641 13.0014 29.4015C13.5471 27.1992 14.4187 25.0948 15.5953 23.1478C16.1587 22.2136 16.0127 21.0209 15.2406 20.2473L10.6418 15.6485L15.873 10.4189L20.4718 15.0176C21.2455 15.7897 22.4381 15.9358 23.3707 15.3724C25.3178 14.1974 27.4221 13.3242 29.6244 12.7785C30.687 12.5152 31.4286 11.5682 31.4286 10.4767V3.97736H38.8252V10.4799C38.8252 11.5714 39.5668 12.5184 40.6294 12.7817C42.8317 13.3274 44.9344 14.2006 46.8831 15.3756C47.8173 15.939 49.0099 15.7929 49.782 15.0209L54.3808 10.4221L59.6104 15.6517L55.0116 20.2505C54.2395 21.0242 54.0935 22.2152 54.6569 23.151C55.8319 25.0981 56.7051 27.2024 57.2508 29.4047C57.5141 30.4673 58.4611 31.2089 59.5526 31.2089H66.0551V38.6055H59.5526C58.4611 38.6055 57.5141 39.3471 57.2508 40.4097L57.2492 40.4081Z" fill="#00D198" stroke="#00D198"/>
</svg>
