<svg viewBox="0 0 24 24"  xmlns="http://www.w3.org/2000/svg" style="display:none">

	<symbol viewBox="0 0 31 27" id="cart">
		<path d="M27.0896 8.70145L21.1952 0.919922L18.6463 2.84386L23.0763 8.70758H8.36492L12.7949 2.84386L10.246 0.919922L4.35774 8.70758H0.105469V11.906H1.6679L4.03912 26.3232H27.0161L29.3873 11.8998H30.9497V8.70145H27.0896Z"/>
	</symbol>

	<symbol viewBox="0 0 25 25" id="comment">
		<path d="M3.93251 0C1.75971 0 0 1.79413 0 4.00946V15.3311C0 17.5465 1.76173 19.3507 3.93251 19.3507H19.7456L24.075 24.4577C24.4213 24.8688 24.7048 24.7574 24.7048 24.2168V15.7017C24.7048 15.6612 24.7027 15.6207 24.6967 15.5802C24.7007 15.4972 24.7048 15.4162 24.7048 15.3332V4.00946C24.7048 1.79413 22.943 0 20.7723 0H3.93251Z"/>
	</symbol>

	<symbol viewBox="0 0 23 25" id="search">
		<path d="M22.472 22.2039L18.1531 17.885C19.7636 16.0794 20.764 13.6882 20.764 11.0773C20.764 5.4408 16.1767 0.853516 10.5402 0.853516C4.90369 0.853516 0.316406 5.4408 0.316406 11.0773C0.316406 16.7138 4.90369 21.3011 10.5402 21.3011C12.541 21.3011 14.3955 20.7155 15.9571 19.7395L20.4468 24.2291C20.7152 24.4976 21.0812 24.644 21.4472 24.644C21.8132 24.644 22.1792 24.4976 22.4476 24.2291C23.0332 23.6679 23.0332 22.7651 22.472 22.2039ZM3.17126 11.0773C3.17126 7.02683 6.46532 3.70837 10.5402 3.70837C14.6151 3.70837 17.8847 7.02683 17.8847 11.0773C17.8847 15.1278 14.5907 18.4462 10.5402 18.4462C6.48972 18.4462 3.17126 15.1522 3.17126 11.0773Z"/>
	</symbol>

	<symbol viewBox="0 0 21 20" id="star">
		<path d="M10.3939 0.496094L12.7924 7.87785H20.554L14.2747 12.44L16.6732 19.8218L10.3939 15.2596L4.11462 19.8218L6.5131 12.44L0.2338 7.87785H7.99544L10.3939 0.496094Z"/>
	</symbol>

	<symbol viewBox="0 0 28 52" id="arrow-prev">
		<path fill-rule="evenodd" clip-rule="evenodd" d="M5.62787 25.8256L27.9605 2.98804L25.1006 0.191406L0.0332031 25.8256L25.1006 51.4598L27.9605 48.6632L5.62787 25.8256Z"/>
	</symbol>

	<symbol viewBox="0 0 29 52" id="arrow-next">
		<path fill-rule="evenodd" clip-rule="evenodd" d="M23.2193 25.8256L0.886723 2.98804L3.74659 0.191406L28.814 25.8256L3.74659 51.4598L0.886719 48.6632L23.2193 25.8256Z"/>
	</symbol>

	<symbol viewBox="0 0 24 15" id="arrow-up">
		<path fill-rule="evenodd" clip-rule="evenodd" d="M12.0807 6.51068L20.5891 14.8309L23.3857 11.9711L12.0807 0.916016L0.7757 11.9711L3.57233 14.8309L12.0807 6.51068Z"/>
	</symbol>

	<symbol viewBox="0 0 24 15" id="arrow-down">
		<path fill-rule="evenodd" clip-rule="evenodd" d="M12.0804 8.66217L3.57202 0.341916L0.775391 3.20178L12.0804 14.2568L23.3854 3.20178L20.5888 0.341916L12.0804 8.66217Z"/>
	</symbol>

	<symbol viewBox="0 0 61 60" id="close">
		<path fill-rule="evenodd" clip-rule="evenodd" d="M25.6555 30.3683L0.400391 5.1132L5.35014 0.163452L30.6053 25.4186L55.6847 0.339204L60.6344 5.28895L35.555 30.3683L59.2559 54.0692L54.3061 59.0189L30.6053 35.3181L6.7287 59.1947L1.77895 54.2449L25.6555 30.3683Z"/>
	</symbol>

	<symbol viewBox="0 0 39 40" id="trash">
		<path d="M30.0795 39.2751C31.7078 39.2751 32.9908 38.0415 33.0401 36.4132L33.9776 8.23786H37.6784V6.26411H27.2669V4.14233C27.2669 2.46464 25.8853 1.08301 24.2076 1.08301H14.9309C13.2532 1.08301 11.8716 2.46464 11.8716 4.14233V6.26411H1.46094V8.23786H5.16173L6.09926 36.4132C6.1486 38.0415 7.43154 39.2751 9.05989 39.2751H30.0795ZM13.8454 4.14233C13.8454 3.5502 14.3388 3.05676 14.9309 3.05676H24.2076C24.7997 3.05676 25.2931 3.5502 25.2931 4.14233V6.26411H13.8454V4.14233ZM8.07213 36.3639L7.1346 8.23786H31.9545L31.017 36.3639C31.017 36.9066 30.5729 37.3014 30.0301 37.3014H9.05901C8.56557 37.3014 8.12147 36.9066 8.07213 36.3639Z"/>
		<path d="M18.5813 15.2448H20.555V29.9986H18.5813V15.2448Z"/>
		<path d="M12.6596 15.2448H14.6334V29.9986H12.6596V15.2448Z"/>
		<path d="M24.5029 15.2448H26.4766V29.9986H24.5029V15.2448Z"/>
		<path fill-rule="evenodd" clip-rule="evenodd" d="M11.3716 4.14233C11.3716 2.18849 12.9771 0.583008 14.9309 0.583008H24.2076C26.1614 0.583008 27.7669 2.18849 27.7669 4.14233V5.76411H38.1784V8.73787H34.4613L33.5399 36.4283C33.4823 38.3292 31.9757 39.7751 30.0795 39.7751H9.05989C7.16397 39.7751 5.65749 38.3296 5.59951 36.4291C5.5995 36.4288 5.59952 36.4294 5.59951 36.4291L4.67809 8.73787H0.960938V5.76411H11.3716V4.14233ZM14.9309 1.58301C13.5294 1.58301 12.3716 2.74078 12.3716 4.14233V6.76411H1.96094V7.73786H5.64536L6.59903 36.3981C6.64011 37.7539 7.69937 38.7751 9.05989 38.7751H30.0795C31.44 38.7751 32.4993 37.7539 32.5403 36.3981L32.5404 36.3966L33.494 7.73786H37.1784V6.76411H26.7669V4.14233C26.7669 2.74078 25.6091 1.58301 24.2076 1.58301H14.9309ZM14.9309 3.55676C14.6149 3.55676 14.3454 3.82634 14.3454 4.14233V5.76411H24.7931V4.14233C24.7931 3.82634 24.5236 3.55676 24.2076 3.55676H14.9309ZM13.3454 4.14233C13.3454 3.27406 14.0627 2.55676 14.9309 2.55676H24.2076C25.0758 2.55676 25.7931 3.27406 25.7931 4.14233V6.76411H13.3454V4.14233ZM6.61765 7.73786H32.4715L31.517 36.373C31.512 37.22 30.812 37.8014 30.0301 37.8014H9.05901C8.29832 37.8014 7.64615 37.2007 7.57418 36.4091L7.57289 36.3948L6.61765 7.73786ZM7.65154 8.73787L8.5713 36.3307C8.60331 36.6177 8.83594 36.8014 9.05901 36.8014H30.0301C30.331 36.8014 30.517 36.5975 30.517 36.3639V36.3555L31.4376 8.73787H7.65154ZM12.1596 14.7448H15.1334V30.4986H12.1596V14.7448ZM13.1596 15.7448V29.4986H14.1334V15.7448H13.1596ZM18.0813 14.7448H21.055V30.4986H18.0813V14.7448ZM19.0813 15.7448V29.4986H20.055V15.7448H19.0813ZM24.0029 14.7448H26.9766V30.4986H24.0029V14.7448ZM25.0029 15.7448V29.4986H25.9766V15.7448H25.0029Z"/>
	</symbol>
	
	<symbol viewBox="0 0 12 8" id="sort-arrow-up">
		<path fill-rule="evenodd" clip-rule="evenodd" d="M5.88451 3.08151L9.90149 7.00967L11.2998 5.57973L5.88451 0.28418L0.469219 5.57973L1.86753 7.00967L5.88451 3.08151Z"/>
	</symbol>

	<symbol viewBox="0 0 12 8" id="sort-arrow-down">
		<path fill-rule="evenodd" clip-rule="evenodd" d="M6.09791 4.89505L2.08093 0.966895L0.682617 2.39683L6.09791 7.69238L11.5132 2.39683L10.1149 0.966895L6.09791 4.89505Z"/>
	</symbol>

	<symbol viewBox="0 0 23 27" id="user">
		<path d="M12.178 0.675762C15.4403 1.20544 17.6558 4.2788 17.1261 7.5411C16.597 10.8034 13.5231 13.0189 10.2608 12.4893C6.99847 11.9601 4.78295 8.88622 5.31262 5.62392C5.84229 2.36213 8.91566 0.146612 12.178 0.675762Z"/>
		<path d="M22.1367 25.5947C22.1357 25.8753 22.0242 26.1438 21.8258 26.3421C21.6275 26.5405 21.3584 26.6525 21.0784 26.653H1.35908C1.07854 26.652 0.810042 26.5405 0.611676 26.3421C0.413311 26.1438 0.301305 25.8747 0.300781 25.5947C0.300781 22.6993 1.4512 19.9222 3.49871 17.8747C5.54622 15.8272 8.32334 14.6768 11.2188 14.6768C14.1142 14.6768 16.8913 15.8272 18.9388 17.8747C20.9863 19.9222 22.1367 22.6993 22.1367 25.5947Z"/>
	</symbol>

	<symbol viewBox="0 0 27 16" id="eay">
		<path fill-rule="evenodd" clip-rule="evenodd" d="M3.55266 7.63709C6.40532 11.0051 10.0399 12.9478 13.8914 12.9478C17.7431 12.9478 21.3468 11.0229 24.1923 7.68406C21.3394 4.31858 17.7045 2.37544 13.8525 2.37544C10.0011 2.37544 6.39477 4.29996 3.55266 7.63709ZM26.4704 6.83889C23.2276 2.70738 18.7886 0.0754395 13.8525 0.0754395C8.92174 0.0754395 4.51669 2.68181 1.28252 6.77905C1.22178 6.8343 1.16794 6.89496 1.12185 6.95911C0.954224 7.19239 0.904297 7.44156 0.904297 7.63509C0.904297 7.82862 0.954224 8.07779 1.12185 8.31108C1.1674 8.37446 1.22051 8.43445 1.28037 8.48918C4.52258 12.6196 8.95883 15.2478 13.8914 15.2478C18.8262 15.2478 23.2302 12.6371 26.4682 8.53528C26.4983 8.50745 26.5272 8.47779 26.5546 8.44633C26.7693 8.20034 26.8396 7.91473 26.8396 7.68608C26.8396 7.45743 26.7693 7.17181 26.5546 6.92582C26.5278 6.89513 26.4997 6.86614 26.4704 6.83889ZM1.16359 8.33908L1.1672 8.34376Z"/>
		<path d="M13.8725 12.4664C16.4049 12.4664 18.4578 10.3153 18.4578 7.66175C18.4578 5.00819 16.4049 2.85706 13.8725 2.85706C11.34 2.85706 9.28711 5.00819 9.28711 7.66175C9.28711 10.3153 11.34 12.4664 13.8725 12.4664Z"/>
	</symbol>

	<symbol viewBox="0 0 24 23" id="min-arrow-next">
		<path fill-rule="evenodd" clip-rule="evenodd" d="M16.1608 9.65125H0.648438V13.6512H16.2383L9.83508 20.1992L12.6949 22.9958L23.75 11.6908L12.6949 0.385808L9.83508 3.18244L16.1608 9.65125Z"/>
	</symbol>

	<symbol viewBox="0 0 30 27" id="user-add">
		<path fill-rule="evenodd" clip-rule="evenodd" d="M17.755 7.09164C18.2847 3.82933 16.0692 0.755972 12.8069 0.226299C9.54456 -0.302851 6.4712 1.91267 5.94153 5.17445C5.41185 8.43676 7.62737 11.5106 10.8897 12.0398C14.152 12.5695 17.2259 10.3539 17.755 7.09164ZM18.8457 21.167V26.2036H1.98799C1.70745 26.2025 1.43895 26.091 1.24058 25.8927C1.04222 25.6943 0.930211 25.4253 0.929688 25.1453C0.929688 22.2499 2.0801 19.4727 4.12762 17.4252C6.17513 15.3777 8.95225 14.2273 11.8477 14.2273C12.4229 14.2273 12.9935 14.2727 13.5547 14.3616V21.167H18.8457ZM20.8457 10.0322H24.6895V15.3232H29.9795V19.167H24.6895V24.457H20.8457V19.167H15.5547V15.3232H20.8457V10.0322Z"/>
	</symbol>

	<symbol viewBox="0 0 31 31" id="error">
		<path fill-rule="evenodd" clip-rule="evenodd" d="M0.417969 9.08295V21.084C0.417969 21.4448 0.568513 21.8061 0.869065 22.0766L9.4114 29.7468C9.65227 29.9877 9.98293 30.1377 10.3437 30.1377H20.6006C20.9012 30.1377 21.2324 30.0173 21.4727 29.7769L30.0151 22.1067C30.3156 21.8658 30.5264 21.505 30.5264 21.084V9.08295C30.5264 8.72218 30.3758 8.36087 30.0753 8.09043L21.5335 0.420175C21.2926 0.179304 20.9619 0.0292969 20.6012 0.0292969H10.3442C10.0136 0.0292969 9.71249 0.149733 9.44151 0.359958L0.929283 8.03021C0.598622 8.30119 0.417969 8.66196 0.417969 9.08295ZM9.80282 12.2412C9.26139 11.7298 9.26139 10.8578 9.80282 10.3459L10.7351 9.41361C11.2464 8.87218 12.1185 8.87218 12.6304 9.41361L15.4579 12.2412L18.3156 9.41361C18.8269 8.87218 19.6694 8.87218 20.2108 9.41361L21.1431 10.3459C21.6544 10.8572 21.6544 11.7293 21.1431 12.2412L18.3156 15.0687L21.1431 17.9264C21.6544 18.4377 21.6544 19.2802 21.1431 19.8216L20.2108 20.7539C19.6694 21.2652 18.8274 21.2652 18.3156 20.7539L15.4579 17.9264L12.6304 20.7539C12.1191 21.2652 11.247 21.2652 10.7351 20.7539L9.80282 19.8216C9.26139 19.2802 9.26139 18.4382 9.80282 17.9264L12.6304 15.0687L9.80282 12.2412Z"/>
	</symbol>
		
</svg>