<svg width="32" height="27" viewBox="0 0 32 27" fill="none" xmlns="http://www.w3.org/2000/svg">
<path d="M12.7483 0.232891C16.0106 0.762564 18.2261 3.83592 17.6964 7.09823C17.1673 10.3605 14.0934 12.5761 10.8311 12.0464C7.56878 11.5172 5.35326 8.44335 5.88293 5.18104C6.41261 1.91926 9.48597 -0.296259 12.7483 0.232891Z" fill="#008179"/>
<path d="M22.707 25.1519C22.706 25.4324 22.5945 25.7009 22.3961 25.8993C22.1978 26.0976 21.9287 26.2096 21.6487 26.2102H1.92939C1.64886 26.2091 1.38035 26.0976 1.18199 25.8993C0.983623 25.7009 0.871617 25.4319 0.871094 25.1519C0.871094 22.2564 2.02151 19.4793 4.06902 17.4318C6.11653 15.3843 8.89365 14.2339 11.7891 14.2339C14.6845 14.2339 17.4616 15.3843 19.5091 17.4318C21.5566 19.4793 22.707 22.2564 22.707 25.1519Z" fill="#008179"/>
<mask id="path-3-outside-1_1441_15204" maskUnits="userSpaceOnUse" x="13.4922" y="8.03882" width="19" height="19" fill="black">
<rect fill="white" x="13.4922" y="8.03882" width="19" height="19"/>
<path fill-rule="evenodd" clip-rule="evenodd" d="M24.627 10.0388H20.7832V15.3298H15.4922V19.1736H20.7832V24.4636H24.627V19.1736H29.917V15.3298H24.627V10.0388Z"/>
</mask>
<path fill-rule="evenodd" clip-rule="evenodd" d="M24.627 10.0388H20.7832V15.3298H15.4922V19.1736H20.7832V24.4636H24.627V19.1736H29.917V15.3298H24.627V10.0388Z" fill="#008179"/>
<path d="M20.7832 10.0388V8.03882H18.7832V10.0388H20.7832ZM24.627 10.0388H26.627V8.03882H24.627V10.0388ZM20.7832 15.3298V17.3298H22.7832V15.3298H20.7832ZM15.4922 15.3298V13.3298H13.4922V15.3298H15.4922ZM15.4922 19.1736H13.4922V21.1736H15.4922V19.1736ZM20.7832 19.1736H22.7832V17.1736H20.7832V19.1736ZM20.7832 24.4636H18.7832V26.4636H20.7832V24.4636ZM24.627 24.4636V26.4636H26.627V24.4636H24.627ZM24.627 19.1736V17.1736H22.627V19.1736H24.627ZM29.917 19.1736V21.1736H31.917V19.1736H29.917ZM29.917 15.3298H31.917V13.3298H29.917V15.3298ZM24.627 15.3298H22.627V17.3298H24.627V15.3298ZM20.7832 12.0388H24.627V8.03882H20.7832V12.0388ZM22.7832 15.3298V10.0388H18.7832V15.3298H22.7832ZM15.4922 17.3298H20.7832V13.3298H15.4922V17.3298ZM17.4922 19.1736V15.3298H13.4922V19.1736H17.4922ZM20.7832 17.1736H15.4922V21.1736H20.7832V17.1736ZM22.7832 24.4636V19.1736H18.7832V24.4636H22.7832ZM24.627 22.4636H20.7832V26.4636H24.627V22.4636ZM22.627 19.1736V24.4636H26.627V19.1736H22.627ZM29.917 17.1736H24.627V21.1736H29.917V17.1736ZM27.917 15.3298V19.1736H31.917V15.3298H27.917ZM24.627 17.3298H29.917V13.3298H24.627V17.3298ZM22.627 10.0388V15.3298H26.627V10.0388H22.627Z" fill="white" mask="url(#path-3-outside-1_1441_15204)"/>
</svg>
