<svg width="51" height="61" viewBox="0 0 51 61" fill="none" xmlns="http://www.w3.org/2000/svg">
<path fill-rule="evenodd" clip-rule="evenodd" d="M25.5031 0.675781C17.6395 0.675781 11.2559 7.05944 11.2559 14.923C11.2559 22.7865 17.6395 29.1702 25.5031 29.1702C33.3666 29.1702 39.7503 22.7865 39.7503 14.923C39.7503 7.05944 33.3666 0.675781 25.5031 0.675781ZM25.5031 3.26588C31.9367 3.26588 37.1602 8.48938 37.1602 14.923C37.1602 21.3566 31.9367 26.5801 25.5031 26.5801C19.0695 26.5801 13.846 21.3566 13.846 14.923C13.846 8.48938 19.0695 3.26588 25.5031 3.26588Z" fill="#00D198" stroke="#00D198"/>
<path fill-rule="evenodd" clip-rule="evenodd" d="M50.1122 53.7815C50.1122 47.9407 47.7919 42.3408 43.6631 38.2109C39.5342 34.082 33.9333 31.7617 28.0925 31.7617H22.9123C17.0715 31.7617 11.4717 34.0809 7.34174 38.2109C3.21179 42.3408 0.892578 47.9407 0.892578 53.7815V56.3716C0.892578 58.5176 2.63226 60.2573 4.77828 60.2573H46.2265C48.3726 60.2573 50.1122 58.5176 50.1122 56.3716V53.7815ZM47.521 53.7815V56.3716C47.521 57.0865 46.9404 57.6672 46.2265 57.6672H4.77828C4.06331 57.6672 3.48379 57.0865 3.48379 56.3716V53.7815C3.48379 48.629 5.52989 43.6864 9.17357 40.0427C12.8172 36.399 17.7599 34.3529 22.9123 34.3529H28.0925C33.2449 34.3529 38.1876 36.399 41.8312 40.0427C45.4749 43.6864 47.521 48.629 47.521 53.7815Z" fill="#00D198" stroke="#00D198"/>
</svg>
