<svg width="22" height="27" viewBox="0 0 22 27" fill="none" xmlns="http://www.w3.org/2000/svg">
<path d="M12.0217 0.675762C15.284 1.20544 17.4995 4.2788 16.9699 7.5411C16.4407 10.8034 13.3668 13.0189 10.1045 12.4893C6.84222 11.9601 4.6267 8.88622 5.15637 5.62392C5.68604 2.36213 8.75941 0.146612 12.0217 0.675762Z" fill="#008179"/>
<path d="M21.9805 25.5947C21.9794 25.8753 21.8679 26.1438 21.6696 26.3421C21.4712 26.5405 21.2022 26.6525 20.9222 26.653H1.20283C0.922293 26.652 0.653792 26.5405 0.455426 26.3421C0.257061 26.1438 0.145055 25.8747 0.144531 25.5947C0.144531 22.6993 1.29495 19.9222 3.34246 17.8747C5.38997 15.8272 8.16709 14.6768 11.0625 14.6768C13.9579 14.6768 16.735 15.8272 18.7825 17.8747C20.8301 19.9222 21.9805 22.6993 21.9805 25.5947Z" fill="#008179"/>
</svg>
