<svg width="23" height="27" viewBox="0 0 23 27" fill="none" xmlns="http://www.w3.org/2000/svg">
<path d="M12.303 1.01561C15.5653 1.54528 17.7808 4.61864 17.2511 7.88095C16.722 11.1433 13.6481 13.3588 10.3858 12.8291C7.12347 12.2999 4.90795 9.22606 5.43762 5.96376C5.96729 2.70198 9.04066 0.486456 12.303 1.01561Z" fill="#008179"/>
<path d="M22.2617 25.9336C22.2607 26.2141 22.1492 26.4826 21.9508 26.681C21.7525 26.8794 21.4834 26.9914 21.2034 26.9919H1.48408C1.20354 26.9908 0.935042 26.8794 0.736676 26.681C0.538311 26.4826 0.426305 26.2136 0.425781 25.9336C0.425781 23.0382 1.5762 20.2611 3.62371 18.2136C5.67122 16.166 8.44834 15.0156 11.3438 15.0156C14.2392 15.0156 17.0163 16.166 19.0638 18.2136C21.1113 20.2611 22.2617 23.0382 22.2617 25.9336Z" fill="#008179"/>
</svg>
