<svg width="32" height="39" viewBox="0 0 32 39" fill="none" xmlns="http://www.w3.org/2000/svg">
<path d="M17.6211 1.05122C22.3248 1.81493 25.5193 6.24629 24.7556 10.9501C23.9926 15.6539 19.5605 18.8483 14.8567 18.0846C10.153 17.3217 6.95848 12.8896 7.7222 8.18576C8.48591 3.48273 12.9173 0.288256 17.6211 1.05122Z" fill="#008179"/>
<path d="M31.9844 36.9808C31.9829 37.3853 31.8221 37.7725 31.5361 38.0585C31.2501 38.3445 30.8622 38.506 30.4585 38.5068H2.02592C1.62142 38.5052 1.23428 38.3445 0.948267 38.0585C0.662252 37.7725 0.500755 37.3846 0.5 36.9808C0.5 32.8061 2.15874 28.8018 5.11097 25.8496C8.06319 22.8974 12.0674 21.2386 16.2422 21.2386C20.417 21.2386 24.4212 22.8974 27.3734 25.8496C30.3256 28.8018 31.9844 32.8061 31.9844 36.9808Z" fill="#008179"/>
</svg>
