<svg width="22" height="26" viewBox="0 0 22 26" fill="none" xmlns="http://www.w3.org/2000/svg">
<path d="M15.8107 7.09746L15.8107 7.09731C16.2229 4.55833 14.4987 2.16619 11.9594 1.75382L15.8107 7.09746ZM15.8107 7.09746C15.3988 9.63659 13.0063 11.361 10.4672 10.9487L10.467 10.9487M15.8107 7.09746L10.467 10.9487M10.467 10.9487C7.92789 10.5369 6.20348 8.14438 6.61574 5.60522M10.467 10.9487L6.61574 5.60522M6.61574 5.60522C7.02801 3.06643 9.42011 1.34202 11.9593 1.75379L6.61574 5.60522Z" stroke="#00D198" stroke-width="2"/>
<path d="M17.8049 17.7345C19.5524 19.482 20.5346 21.8519 20.5355 24.323C20.5354 24.3248 20.5348 24.3255 20.5344 24.3259L21.2415 25.033L20.5344 24.3259C20.5336 24.3267 20.5328 24.3269 20.5328 24.3269L1.89461 24.3269C1.89275 24.3268 1.89202 24.3262 1.89167 24.3259L1.18456 25.033L1.89167 24.3259C1.8908 24.325 1.89065 24.3242 1.89063 24.3242C1.89119 21.8527 2.87341 19.4823 4.62122 17.7345C6.36953 15.9862 8.74082 15.0039 11.213 15.0039C13.6853 15.0039 16.0566 15.9862 17.8049 17.7345Z" stroke="#00D198" stroke-width="2"/>
</svg>
