<svg width="54" height="64" viewBox="0 0 54 64" fill="none" xmlns="http://www.w3.org/2000/svg">
<path d="M38.4485 17.2647L38.4486 17.2643C39.5056 10.7539 35.0845 4.62013 28.5733 3.56276L38.4485 17.2647ZM38.4485 17.2647C37.3925 23.7754 31.2578 28.197 24.747 27.1399L24.7466 27.1399M38.4485 17.2647L24.7466 27.1399M24.7466 27.1399C18.2359 26.0838 13.8143 19.9491 14.8714 13.4383M24.7466 27.1399L14.8714 13.4383M14.8714 13.4383C15.9285 6.92854 22.0622 2.50685 28.573 3.56269L14.8714 13.4383Z" stroke="#00D198" stroke-width="5"/>
<path d="M0.3125 61.2384H2.8125C2.8125 54.9133 5.32565 48.8464 9.79866 44.3734C14.2717 39.9004 20.3386 37.3872 26.6637 37.3872C32.9888 37.3872 39.0557 39.9004 43.5287 44.3734C47.9999 48.8445 50.5128 54.9083 50.5149 61.2306C50.5144 61.2491 50.5073 61.264 50.4967 61.2745C50.4842 61.2871 50.4684 61.2925 50.4564 61.2927H2.87474C2.85613 61.2923 2.84121 61.2851 2.83063 61.2745L1.07701 63.0282L2.83063 61.2745C2.81791 61.2618 2.81252 61.2458 2.8125 61.2337L0.3125 61.2384ZM0.3125 61.2384C0.3125 54.2501 3.0891 47.5474 8.0309 42.6056C12.9727 37.6638 19.6754 34.8872 26.6637 34.8872C33.6519 34.8872 40.3547 37.6638 45.2965 42.6056C50.2383 47.5474 53.0149 54.2501 53.0149 61.2384L2.86677 63.7927C2.18967 63.7901 1.54163 63.5211 1.06286 63.0423C0.584097 62.5635 0.313763 61.9142 0.3125 61.2384Z" stroke="#00D198" stroke-width="5"/>
</svg>
